<svg viewBox="-150 -150 300 300" xmlns="http://www.w3.org/2000/svg">\n<polygon points="-88.3022221559489,-32.13938048432697 -93.30127018922194,-24.999999999999996 -96.98463103929541,-17.101007166283445 -99.2403876506104,-8.682408883346511 -100.0,-7.105427357601002e-15 -99.2403876506104,8.682408883346511 -96.98463103929542,17.10100716628343 -93.30127018922194,24.99999999999999 -88.3022221559489,32.139380484326956 -82.13938048432698,38.3022221559489 -75.0,43.301270189221924 -67.10100716628344,46.98463103929541 -58.68240888334652,49.240387650610394 -50.0,49.99999999999999 -30.0,49.99999999999999 -21.31759111665349,49.240387650610394 -12.898992833716562,46.984631039295415 -5.000000000000011,43.30127018922193 -6.738924321326968e-15,39.800232498173386 0.9819532529289661,40.487803568043795 0.7596123493895988,41.31759111665349 0.0,49.99999999999999 20.0,49.99999999999999 20.095115377229913,48.91282626346521 21.31759111665348,49.2403876506104 30.0,50.0 50.0,50.0 58.68240888334651,49.2403876506104 67.10100716628344,46.98463103929542 74.99999999999999,43.30127018922194 78.4903250715566,40.85731826331566 79.54423259036625,44.79055466999209 80.0,50.0 100.0,50.0 99.2403876506104,41.31759111665348 96.98463103929542,32.89899283371656 93.30127018922194,25.000000000000004 93.30127018922194,25.0 93.30127018922194,24.999999999999996 96.98463103929541,17.101007166283445 99.2403876506104,8.682408883346511 100.0,7.105427357601002e-15 99.2403876506104,-8.682408883346511 96.98463103929542,-17.10100716628343 93.30127018922194,-24.99999999999999 88.3022221559489,-32.139380484326956 82.13938048432698,-38.3022221559489 75.0,-43.301270189221924 67.10100716628344,-46.98463103929541 58.68240888334652,-49.240387650610394 50.0,-49.99999999999999 -30.0,-50.0 -50.0,-50.0 -58.68240888334651,-49.2403876506104 -67.10100716628344,-46.98463103929542 -74.99999999999999,-43.30127018922194 -82.13938048432698,-38.302222155948904 -88.3022221559489,-32.13938048432697" fill="#ff9999" fill-opacity="0.5" stroke="red" stroke-width="2"/>\n</svg>