<svg viewBox="0 0 200 200" xmlns="http://www.w3.org/2000/svg">
<rect width="200" height="200" fill="none" stroke="black" stroke-width="2"/>
<polygon points="0.0,0.0 10.0,0.0 10.0,10.0 0.0,10.0 0.0,0.0" fill="#ff9999" stroke="black" stroke-width="1" opacity="0.8"/>
<text x="5.0" y="5.0" font-size="12" fill="black" text-anchor="middle">P0</text>
<polygon points="10.0,0.0 20.0,0.0 20.0,10.0 10.0,10.0 10.0,0.0" fill="#99ff99" stroke="black" stroke-width="1" opacity="0.8"/>
<text x="15.0" y="5.0" font-size="12" fill="black" text-anchor="middle">P1</text>
<polygon points="20.0,0.0 30.0,0.0 30.0,10.0 20.0,10.0 20.0,0.0" fill="#9999ff" stroke="black" stroke-width="1" opacity="0.8"/>
<text x="25.0" y="5.0" font-size="12" fill="black" text-anchor="middle">P2</text>
<polygon points="30.0,0.0 40.0,0.0 40.0,10.0 30.0,10.0 30.0,0.0" fill="#ffff99" stroke="black" stroke-width="1" opacity="0.8"/>
<text x="35.0" y="5.0" font-size="12" fill="black" text-anchor="middle">P3</text>
<polygon points="40.0,0.0 50.0,0.0 50.0,10.0 40.0,10.0 40.0,0.0" fill="#ff99ff" stroke="black" stroke-width="1" opacity="0.8"/>
<text x="45.0" y="5.0" font-size="12" fill="black" text-anchor="middle">P4</text>
<polygon points="50.0,0.0 60.0,0.0 60.0,10.0 50.0,10.0 50.0,0.0" fill="#99ffff" stroke="black" stroke-width="1" opacity="0.8"/>
<text x="55.0" y="5.0" font-size="12" fill="black" text-anchor="middle">P5</text>
<polygon points="60.0,0.0 70.0,0.0 70.0,10.0 60.0,10.0 60.0,0.0" fill="#ff9999" stroke="black" stroke-width="1" opacity="0.8"/>
<text x="65.0" y="5.0" font-size="12" fill="black" text-anchor="middle">P6</text>
<polygon points="70.0,0.0 80.0,0.0 80.0,10.0 70.0,10.0 70.0,0.0" fill="#99ff99" stroke="black" stroke-width="1" opacity="0.8"/>
<text x="75.0" y="5.0" font-size="12" fill="black" text-anchor="middle">P7</text>
<polygon points="80.0,0.0 90.0,0.0 90.0,10.0 80.0,10.0 80.0,0.0" fill="#9999ff" stroke="black" stroke-width="1" opacity="0.8"/>
<text x="85.0" y="5.0" font-size="12" fill="black" text-anchor="middle">P8</text>
<polygon points="90.0,0.0 100.0,0.0 100.0,10.0 90.0,10.0 90.0,0.0" fill="#ffff99" stroke="black" stroke-width="1" opacity="0.8"/>
<text x="95.0" y="5.0" font-size="12" fill="black" text-anchor="middle">P9</text>
<polygon points="100.0,0.0 110.0,0.0 110.0,10.0 100.0,10.0 100.0,0.0" fill="#ff99ff" stroke="black" stroke-width="1" opacity="0.8"/>
<text x="105.0" y="5.0" font-size="12" fill="black" text-anchor="middle">P10</text>
<polygon points="110.0,0.0 120.0,0.0 120.0,10.0 110.0,10.0 110.0,0.0" fill="#99ffff" stroke="black" stroke-width="1" opacity="0.8"/>
<text x="115.0" y="5.0" font-size="12" fill="black" text-anchor="middle">P11</text>
<polygon points="120.0,0.0 130.0,0.0 130.0,10.0 120.0,10.0 120.0,0.0" fill="#ff9999" stroke="black" stroke-width="1" opacity="0.8"/>
<text x="125.0" y="5.0" font-size="12" fill="black" text-anchor="middle">P12</text>
<polygon points="130.0,0.0 140.0,0.0 140.0,10.0 130.0,10.0 130.0,0.0" fill="#99ff99" stroke="black" stroke-width="1" opacity="0.8"/>
<text x="135.0" y="5.0" font-size="12" fill="black" text-anchor="middle">P13</text>
<polygon points="140.0,0.0 150.0,0.0 150.0,10.0 140.0,10.0 140.0,0.0" fill="#9999ff" stroke="black" stroke-width="1" opacity="0.8"/>
<text x="145.0" y="5.0" font-size="12" fill="black" text-anchor="middle">P14</text>
<polygon points="150.0,0.0 160.0,0.0 160.0,10.0 150.0,10.0 150.0,0.0" fill="#ffff99" stroke="black" stroke-width="1" opacity="0.8"/>
<text x="155.0" y="5.0" font-size="12" fill="black" text-anchor="middle">P15</text>
<polygon points="160.0,0.0 170.0,0.0 170.0,10.0 160.0,10.0 160.0,0.0" fill="#ff99ff" stroke="black" stroke-width="1" opacity="0.8"/>
<text x="165.0" y="5.0" font-size="12" fill="black" text-anchor="middle">P16</text>
<polygon points="170.0,0.0 180.0,0.0 180.0,10.0 170.0,10.0 170.0,0.0" fill="#99ffff" stroke="black" stroke-width="1" opacity="0.8"/>
<text x="175.0" y="5.0" font-size="12" fill="black" text-anchor="middle">P17</text>
<polygon points="180.0,0.0 190.0,0.0 190.0,10.0 180.0,10.0 180.0,0.0" fill="#ff9999" stroke="black" stroke-width="1" opacity="0.8"/>
<text x="185.0" y="5.0" font-size="12" fill="black" text-anchor="middle">P18</text>
<polygon points="190.0,0.0 200.0,0.0 200.0,10.0 190.0,10.0 190.0,0.0" fill="#99ff99" stroke="black" stroke-width="1" opacity="0.8"/>
<text x="195.0" y="5.0" font-size="12" fill="black" text-anchor="middle">P19</text>
<polygon points="0.0,10.0 10.0,10.0 10.0,20.0 0.0,20.0 0.0,10.0" fill="#9999ff" stroke="black" stroke-width="1" opacity="0.8"/>
<text x="5.0" y="15.0" font-size="12" fill="black" text-anchor="middle">P20</text>
<polygon points="10.0,10.0 20.0,10.0 20.0,20.0 10.0,20.0 10.0,10.0" fill="#ffff99" stroke="black" stroke-width="1" opacity="0.8"/>
<text x="15.0" y="15.0" font-size="12" fill="black" text-anchor="middle">P21</text>
<polygon points="20.0,10.0 30.0,10.0 30.0,20.0 20.0,20.0 20.0,10.0" fill="#ff99ff" stroke="black" stroke-width="1" opacity="0.8"/>
<text x="25.0" y="15.0" font-size="12" fill="black" text-anchor="middle">P22</text>
<polygon points="30.0,10.0 40.0,10.0 40.0,20.0 30.0,20.0 30.0,10.0" fill="#99ffff" stroke="black" stroke-width="1" opacity="0.8"/>
<text x="35.0" y="15.0" font-size="12" fill="black" text-anchor="middle">P23</text>
<polygon points="40.0,10.0 50.0,10.0 50.0,20.0 40.0,20.0 40.0,10.0" fill="#ff9999" stroke="black" stroke-width="1" opacity="0.8"/>
<text x="45.0" y="15.0" font-size="12" fill="black" text-anchor="middle">P24</text>
<polygon points="50.0,10.0 60.0,10.0 60.0,20.0 50.0,20.0 50.0,10.0" fill="#99ff99" stroke="black" stroke-width="1" opacity="0.8"/>
<text x="55.0" y="15.0" font-size="12" fill="black" text-anchor="middle">P25</text>
<polygon points="60.0,10.0 70.0,10.0 70.0,20.0 60.0,20.0 60.0,10.0" fill="#9999ff" stroke="black" stroke-width="1" opacity="0.8"/>
<text x="65.0" y="15.0" font-size="12" fill="black" text-anchor="middle">P26</text>
<polygon points="70.0,10.0 80.0,10.0 80.0,20.0 70.0,20.0 70.0,10.0" fill="#ffff99" stroke="black" stroke-width="1" opacity="0.8"/>
<text x="75.0" y="15.0" font-size="12" fill="black" text-anchor="middle">P27</text>
<polygon points="80.0,10.0 90.0,10.0 90.0,20.0 80.0,20.0 80.0,10.0" fill="#ff99ff" stroke="black" stroke-width="1" opacity="0.8"/>
<text x="85.0" y="15.0" font-size="12" fill="black" text-anchor="middle">P28</text>
<polygon points="90.0,10.0 100.0,10.0 100.0,20.0 90.0,20.0 90.0,10.0" fill="#99ffff" stroke="black" stroke-width="1" opacity="0.8"/>
<text x="95.0" y="15.0" font-size="12" fill="black" text-anchor="middle">P29</text>
<polygon points="100.0,10.0 110.0,10.0 110.0,20.0 100.0,20.0 100.0,10.0" fill="#ff9999" stroke="black" stroke-width="1" opacity="0.8"/>
<text x="105.0" y="15.0" font-size="12" fill="black" text-anchor="middle">P30</text>
<polygon points="110.0,10.0 120.0,10.0 120.0,20.0 110.0,20.0 110.0,10.0" fill="#99ff99" stroke="black" stroke-width="1" opacity="0.8"/>
<text x="115.0" y="15.0" font-size="12" fill="black" text-anchor="middle">P31</text>
<polygon points="120.0,10.0 130.0,10.0 130.0,20.0 120.0,20.0 120.0,10.0" fill="#9999ff" stroke="black" stroke-width="1" opacity="0.8"/>
<text x="125.0" y="15.0" font-size="12" fill="black" text-anchor="middle">P32</text>
<polygon points="130.0,10.0 140.0,10.0 140.0,20.0 130.0,20.0 130.0,10.0" fill="#ffff99" stroke="black" stroke-width="1" opacity="0.8"/>
<text x="135.0" y="15.0" font-size="12" fill="black" text-anchor="middle">P33</text>
<polygon points="140.0,10.0 150.0,10.0 150.0,20.0 140.0,20.0 140.0,10.0" fill="#ff99ff" stroke="black" stroke-width="1" opacity="0.8"/>
<text x="145.0" y="15.0" font-size="12" fill="black" text-anchor="middle">P34</text>
<polygon points="150.0,10.0 160.0,10.0 160.0,20.0 150.0,20.0 150.0,10.0" fill="#99ffff" stroke="black" stroke-width="1" opacity="0.8"/>
<text x="155.0" y="15.0" font-size="12" fill="black" text-anchor="middle">P35</text>
<polygon points="160.0,10.0 170.0,10.0 170.0,20.0 160.0,20.0 160.0,10.0" fill="#ff9999" stroke="black" stroke-width="1" opacity="0.8"/>
<text x="165.0" y="15.0" font-size="12" fill="black" text-anchor="middle">P36</text>
<polygon points="170.0,10.0 180.0,10.0 180.0,20.0 170.0,20.0 170.0,10.0" fill="#99ff99" stroke="black" stroke-width="1" opacity="0.8"/>
<text x="175.0" y="15.0" font-size="12" fill="black" text-anchor="middle">P37</text>
<polygon points="180.0,10.0 190.0,10.0 190.0,20.0 180.0,20.0 180.0,10.0" fill="#9999ff" stroke="black" stroke-width="1" opacity="0.8"/>
<text x="185.0" y="15.0" font-size="12" fill="black" text-anchor="middle">P38</text>
<polygon points="190.0,10.0 200.0,10.0 200.0,20.0 190.0,20.0 190.0,10.0" fill="#ffff99" stroke="black" stroke-width="1" opacity="0.8"/>
<text x="195.0" y="15.0" font-size="12" fill="black" text-anchor="middle">P39</text>
<polygon points="0.0,20.0 10.0,20.0 10.0,30.0 0.0,30.0 0.0,20.0" fill="#ff99ff" stroke="black" stroke-width="1" opacity="0.8"/>
<text x="5.0" y="25.0" font-size="12" fill="black" text-anchor="middle">P40</text>
<polygon points="10.0,20.0 20.0,20.0 20.0,30.0 10.0,30.0 10.0,20.0" fill="#99ffff" stroke="black" stroke-width="1" opacity="0.8"/>
<text x="15.0" y="25.0" font-size="12" fill="black" text-anchor="middle">P41</text>
<polygon points="20.0,20.0 30.0,20.0 30.0,30.0 20.0,30.0 20.0,20.0" fill="#ff9999" stroke="black" stroke-width="1" opacity="0.8"/>
<text x="25.0" y="25.0" font-size="12" fill="black" text-anchor="middle">P42</text>
<polygon points="30.0,20.0 40.0,20.0 40.0,30.0 30.0,30.0 30.0,20.0" fill="#99ff99" stroke="black" stroke-width="1" opacity="0.8"/>
<text x="35.0" y="25.0" font-size="12" fill="black" text-anchor="middle">P43</text>
<polygon points="40.0,20.0 50.0,20.0 50.0,30.0 40.0,30.0 40.0,20.0" fill="#9999ff" stroke="black" stroke-width="1" opacity="0.8"/>
<text x="45.0" y="25.0" font-size="12" fill="black" text-anchor="middle">P44</text>
<polygon points="50.0,20.0 60.0,20.0 60.0,30.0 50.0,30.0 50.0,20.0" fill="#ffff99" stroke="black" stroke-width="1" opacity="0.8"/>
<text x="55.0" y="25.0" font-size="12" fill="black" text-anchor="middle">P45</text>
<polygon points="60.0,20.0 70.0,20.0 70.0,30.0 60.0,30.0 60.0,20.0" fill="#ff99ff" stroke="black" stroke-width="1" opacity="0.8"/>
<text x="65.0" y="25.0" font-size="12" fill="black" text-anchor="middle">P46</text>
<polygon points="70.0,20.0 80.0,20.0 80.0,30.0 70.0,30.0 70.0,20.0" fill="#99ffff" stroke="black" stroke-width="1" opacity="0.8"/>
<text x="75.0" y="25.0" font-size="12" fill="black" text-anchor="middle">P47</text>
<polygon points="80.0,20.0 90.0,20.0 90.0,30.0 80.0,30.0 80.0,20.0" fill="#ff9999" stroke="black" stroke-width="1" opacity="0.8"/>
<text x="85.0" y="25.0" font-size="12" fill="black" text-anchor="middle">P48</text>
<polygon points="90.0,20.0 100.0,20.0 100.0,30.0 90.0,30.0 90.0,20.0" fill="#99ff99" stroke="black" stroke-width="1" opacity="0.8"/>
<text x="95.0" y="25.0" font-size="12" fill="black" text-anchor="middle">P49</text>
<polygon points="100.0,20.0 110.0,20.0 110.0,30.0 100.0,30.0 100.0,20.0" fill="#9999ff" stroke="black" stroke-width="1" opacity="0.8"/>
<text x="105.0" y="25.0" font-size="12" fill="black" text-anchor="middle">P50</text>
<polygon points="110.0,20.0 120.0,20.0 120.0,30.0 110.0,30.0 110.0,20.0" fill="#ffff99" stroke="black" stroke-width="1" opacity="0.8"/>
<text x="115.0" y="25.0" font-size="12" fill="black" text-anchor="middle">P51</text>
<polygon points="120.0,20.0 130.0,20.0 130.0,30.0 120.0,30.0 120.0,20.0" fill="#ff99ff" stroke="black" stroke-width="1" opacity="0.8"/>
<text x="125.0" y="25.0" font-size="12" fill="black" text-anchor="middle">P52</text>
<polygon points="130.0,20.0 140.0,20.0 140.0,30.0 130.0,30.0 130.0,20.0" fill="#99ffff" stroke="black" stroke-width="1" opacity="0.8"/>
<text x="135.0" y="25.0" font-size="12" fill="black" text-anchor="middle">P53</text>
<polygon points="140.0,20.0 150.0,20.0 150.0,30.0 140.0,30.0 140.0,20.0" fill="#ff9999" stroke="black" stroke-width="1" opacity="0.8"/>
<text x="145.0" y="25.0" font-size="12" fill="black" text-anchor="middle">P54</text>
<polygon points="150.0,20.0 160.0,20.0 160.0,30.0 150.0,30.0 150.0,20.0" fill="#99ff99" stroke="black" stroke-width="1" opacity="0.8"/>
<text x="155.0" y="25.0" font-size="12" fill="black" text-anchor="middle">P55</text>
<polygon points="160.0,20.0 170.0,20.0 170.0,30.0 160.0,30.0 160.0,20.0" fill="#9999ff" stroke="black" stroke-width="1" opacity="0.8"/>
<text x="165.0" y="25.0" font-size="12" fill="black" text-anchor="middle">P56</text>
<polygon points="170.0,20.0 180.0,20.0 180.0,30.0 170.0,30.0 170.0,20.0" fill="#ffff99" stroke="black" stroke-width="1" opacity="0.8"/>
<text x="175.0" y="25.0" font-size="12" fill="black" text-anchor="middle">P57</text>
<polygon points="180.0,20.0 190.0,20.0 190.0,30.0 180.0,30.0 180.0,20.0" fill="#ff99ff" stroke="black" stroke-width="1" opacity="0.8"/>
<text x="185.0" y="25.0" font-size="12" fill="black" text-anchor="middle">P58</text>
<polygon points="190.0,20.0 200.0,20.0 200.0,30.0 190.0,30.0 190.0,20.0" fill="#99ffff" stroke="black" stroke-width="1" opacity="0.8"/>
<text x="195.0" y="25.0" font-size="12" fill="black" text-anchor="middle">P59</text>
<polygon points="0.0,30.0 10.0,30.0 10.0,40.0 0.0,40.0 0.0,30.0" fill="#ff9999" stroke="black" stroke-width="1" opacity="0.8"/>
<text x="5.0" y="35.0" font-size="12" fill="black" text-anchor="middle">P60</text>
<polygon points="10.0,30.0 20.0,30.0 20.0,40.0 10.0,40.0 10.0,30.0" fill="#99ff99" stroke="black" stroke-width="1" opacity="0.8"/>
<text x="15.0" y="35.0" font-size="12" fill="black" text-anchor="middle">P61</text>
<polygon points="20.0,30.0 30.0,30.0 30.0,40.0 20.0,40.0 20.0,30.0" fill="#9999ff" stroke="black" stroke-width="1" opacity="0.8"/>
<text x="25.0" y="35.0" font-size="12" fill="black" text-anchor="middle">P62</text>
<polygon points="30.0,30.0 40.0,30.0 40.0,40.0 30.0,40.0 30.0,30.0" fill="#ffff99" stroke="black" stroke-width="1" opacity="0.8"/>
<text x="35.0" y="35.0" font-size="12" fill="black" text-anchor="middle">P63</text>
<polygon points="40.0,30.0 50.0,30.0 50.0,40.0 40.0,40.0 40.0,30.0" fill="#ff99ff" stroke="black" stroke-width="1" opacity="0.8"/>
<text x="45.0" y="35.0" font-size="12" fill="black" text-anchor="middle">P64</text>
<polygon points="50.0,30.0 60.0,30.0 60.0,40.0 50.0,40.0 50.0,30.0" fill="#99ffff" stroke="black" stroke-width="1" opacity="0.8"/>
<text x="55.0" y="35.0" font-size="12" fill="black" text-anchor="middle">P65</text>
<polygon points="60.0,30.0 70.0,30.0 70.0,40.0 60.0,40.0 60.0,30.0" fill="#ff9999" stroke="black" stroke-width="1" opacity="0.8"/>
<text x="65.0" y="35.0" font-size="12" fill="black" text-anchor="middle">P66</text>
<polygon points="70.0,30.0 80.0,30.0 80.0,40.0 70.0,40.0 70.0,30.0" fill="#99ff99" stroke="black" stroke-width="1" opacity="0.8"/>
<text x="75.0" y="35.0" font-size="12" fill="black" text-anchor="middle">P67</text>
<polygon points="80.0,30.0 90.0,30.0 90.0,40.0 80.0,40.0 80.0,30.0" fill="#9999ff" stroke="black" stroke-width="1" opacity="0.8"/>
<text x="85.0" y="35.0" font-size="12" fill="black" text-anchor="middle">P68</text>
<polygon points="90.0,30.0 100.0,30.0 100.0,40.0 90.0,40.0 90.0,30.0" fill="#ffff99" stroke="black" stroke-width="1" opacity="0.8"/>
<text x="95.0" y="35.0" font-size="12" fill="black" text-anchor="middle">P69</text>
<polygon points="100.0,30.0 110.0,30.0 110.0,40.0 100.0,40.0 100.0,30.0" fill="#ff99ff" stroke="black" stroke-width="1" opacity="0.8"/>
<text x="105.0" y="35.0" font-size="12" fill="black" text-anchor="middle">P70</text>
<polygon points="110.0,30.0 120.0,30.0 120.0,40.0 110.0,40.0 110.0,30.0" fill="#99ffff" stroke="black" stroke-width="1" opacity="0.8"/>
<text x="115.0" y="35.0" font-size="12" fill="black" text-anchor="middle">P71</text>
<polygon points="120.0,30.0 130.0,30.0 130.0,40.0 120.0,40.0 120.0,30.0" fill="#ff9999" stroke="black" stroke-width="1" opacity="0.8"/>
<text x="125.0" y="35.0" font-size="12" fill="black" text-anchor="middle">P72</text>
<polygon points="130.0,30.0 140.0,30.0 140.0,40.0 130.0,40.0 130.0,30.0" fill="#99ff99" stroke="black" stroke-width="1" opacity="0.8"/>
<text x="135.0" y="35.0" font-size="12" fill="black" text-anchor="middle">P73</text>
<polygon points="140.0,30.0 150.0,30.0 150.0,40.0 140.0,40.0 140.0,30.0" fill="#9999ff" stroke="black" stroke-width="1" opacity="0.8"/>
<text x="145.0" y="35.0" font-size="12" fill="black" text-anchor="middle">P74</text>
<polygon points="150.0,30.0 160.0,30.0 160.0,40.0 150.0,40.0 150.0,30.0" fill="#ffff99" stroke="black" stroke-width="1" opacity="0.8"/>
<text x="155.0" y="35.0" font-size="12" fill="black" text-anchor="middle">P75</text>
<polygon points="160.0,30.0 170.0,30.0 170.0,40.0 160.0,40.0 160.0,30.0" fill="#ff99ff" stroke="black" stroke-width="1" opacity="0.8"/>
<text x="165.0" y="35.0" font-size="12" fill="black" text-anchor="middle">P76</text>
<polygon points="170.0,30.0 180.0,30.0 180.0,40.0 170.0,40.0 170.0,30.0" fill="#99ffff" stroke="black" stroke-width="1" opacity="0.8"/>
<text x="175.0" y="35.0" font-size="12" fill="black" text-anchor="middle">P77</text>
<polygon points="180.0,30.0 190.0,30.0 190.0,40.0 180.0,40.0 180.0,30.0" fill="#ff9999" stroke="black" stroke-width="1" opacity="0.8"/>
<text x="185.0" y="35.0" font-size="12" fill="black" text-anchor="middle">P78</text>
<polygon points="190.0,30.0 200.0,30.0 200.0,40.0 190.0,40.0 190.0,30.0" fill="#99ff99" stroke="black" stroke-width="1" opacity="0.8"/>
<text x="195.0" y="35.0" font-size="12" fill="black" text-anchor="middle">P79</text>
<polygon points="0.0,40.0 10.0,40.0 10.0,50.0 0.0,50.0 0.0,40.0" fill="#9999ff" stroke="black" stroke-width="1" opacity="0.8"/>
<text x="5.0" y="45.0" font-size="12" fill="black" text-anchor="middle">P80</text>
<polygon points="10.0,40.0 20.0,40.0 20.0,50.0 10.0,50.0 10.0,40.0" fill="#ffff99" stroke="black" stroke-width="1" opacity="0.8"/>
<text x="15.0" y="45.0" font-size="12" fill="black" text-anchor="middle">P81</text>
<polygon points="20.0,40.0 30.0,40.0 30.0,50.0 20.0,50.0 20.0,40.0" fill="#ff99ff" stroke="black" stroke-width="1" opacity="0.8"/>
<text x="25.0" y="45.0" font-size="12" fill="black" text-anchor="middle">P82</text>
<polygon points="30.0,40.0 40.0,40.0 40.0,50.0 30.0,50.0 30.0,40.0" fill="#99ffff" stroke="black" stroke-width="1" opacity="0.8"/>
<text x="35.0" y="45.0" font-size="12" fill="black" text-anchor="middle">P83</text>
<polygon points="40.0,40.0 50.0,40.0 50.0,50.0 40.0,50.0 40.0,40.0" fill="#ff9999" stroke="black" stroke-width="1" opacity="0.8"/>
<text x="45.0" y="45.0" font-size="12" fill="black" text-anchor="middle">P84</text>
<polygon points="50.0,40.0 60.0,40.0 60.0,50.0 50.0,50.0 50.0,40.0" fill="#99ff99" stroke="black" stroke-width="1" opacity="0.8"/>
<text x="55.0" y="45.0" font-size="12" fill="black" text-anchor="middle">P85</text>
<polygon points="60.0,40.0 70.0,40.0 70.0,50.0 60.0,50.0 60.0,40.0" fill="#9999ff" stroke="black" stroke-width="1" opacity="0.8"/>
<text x="65.0" y="45.0" font-size="12" fill="black" text-anchor="middle">P86</text>
<polygon points="70.0,40.0 80.0,40.0 80.0,50.0 70.0,50.0 70.0,40.0" fill="#ffff99" stroke="black" stroke-width="1" opacity="0.8"/>
<text x="75.0" y="45.0" font-size="12" fill="black" text-anchor="middle">P87</text>
<polygon points="80.0,40.0 90.0,40.0 90.0,50.0 80.0,50.0 80.0,40.0" fill="#ff99ff" stroke="black" stroke-width="1" opacity="0.8"/>
<text x="85.0" y="45.0" font-size="12" fill="black" text-anchor="middle">P88</text>
<polygon points="90.0,40.0 100.0,40.0 100.0,50.0 90.0,50.0 90.0,40.0" fill="#99ffff" stroke="black" stroke-width="1" opacity="0.8"/>
<text x="95.0" y="45.0" font-size="12" fill="black" text-anchor="middle">P89</text>
<polygon points="100.0,40.0 110.0,40.0 110.0,50.0 100.0,50.0 100.0,40.0" fill="#ff9999" stroke="black" stroke-width="1" opacity="0.8"/>
<text x="105.0" y="45.0" font-size="12" fill="black" text-anchor="middle">P90</text>
<polygon points="110.0,40.0 120.0,40.0 120.0,50.0 110.0,50.0 110.0,40.0" fill="#99ff99" stroke="black" stroke-width="1" opacity="0.8"/>
<text x="115.0" y="45.0" font-size="12" fill="black" text-anchor="middle">P91</text>
<polygon points="120.0,40.0 130.0,40.0 130.0,50.0 120.0,50.0 120.0,40.0" fill="#9999ff" stroke="black" stroke-width="1" opacity="0.8"/>
<text x="125.0" y="45.0" font-size="12" fill="black" text-anchor="middle">P92</text>
<polygon points="130.0,40.0 140.0,40.0 140.0,50.0 130.0,50.0 130.0,40.0" fill="#ffff99" stroke="black" stroke-width="1" opacity="0.8"/>
<text x="135.0" y="45.0" font-size="12" fill="black" text-anchor="middle">P93</text>
<polygon points="140.0,40.0 150.0,40.0 150.0,50.0 140.0,50.0 140.0,40.0" fill="#ff99ff" stroke="black" stroke-width="1" opacity="0.8"/>
<text x="145.0" y="45.0" font-size="12" fill="black" text-anchor="middle">P94</text>
<polygon points="150.0,40.0 160.0,40.0 160.0,50.0 150.0,50.0 150.0,40.0" fill="#99ffff" stroke="black" stroke-width="1" opacity="0.8"/>
<text x="155.0" y="45.0" font-size="12" fill="black" text-anchor="middle">P95</text>
<polygon points="160.0,40.0 170.0,40.0 170.0,50.0 160.0,50.0 160.0,40.0" fill="#ff9999" stroke="black" stroke-width="1" opacity="0.8"/>
<text x="165.0" y="45.0" font-size="12" fill="black" text-anchor="middle">P96</text>
<polygon points="170.0,40.0 180.0,40.0 180.0,50.0 170.0,50.0 170.0,40.0" fill="#99ff99" stroke="black" stroke-width="1" opacity="0.8"/>
<text x="175.0" y="45.0" font-size="12" fill="black" text-anchor="middle">P97</text>
<polygon points="180.0,40.0 190.0,40.0 190.0,50.0 180.0,50.0 180.0,40.0" fill="#9999ff" stroke="black" stroke-width="1" opacity="0.8"/>
<text x="185.0" y="45.0" font-size="12" fill="black" text-anchor="middle">P98</text>
<polygon points="190.0,40.0 200.0,40.0 200.0,50.0 190.0,50.0 190.0,40.0" fill="#ffff99" stroke="black" stroke-width="1" opacity="0.8"/>
<text x="195.0" y="45.0" font-size="12" fill="black" text-anchor="middle">P99</text>
</svg>